<?xml version="1.0" encoding="UTF-8"?>
<svg version="1.1" viewBox="0 0 200 200" xmlns="http://www.w3.org/2000/svg"><title>sun</title><path id="sun" d="m46.6 69.2-14.7-8.5m136 78.6-14.7-8.5m-84.2 22.5-8.5 14.7m78.6-136-8.5 14.7m-61.6 0-8.5-14.7m78.6 136-8.5-14.7m-84.2-22.5-14.7 8.5m136-78.6-14.7 8.5m-115 30.8h-17m157 0h-17m-61.6 61.6v17m0-157v17m38.2 61.6a38.2 38.2 0 0 1-38.2 38.2 38.2 38.2 0 0 1-38.2-38.2 38.2 38.2 0 0 1 38.2-38.2 38.2 38.2 0 0 1 38.2 38.2z" fill="#ffc700" stroke="#ffc700" stroke-linecap="round" stroke-width="13"/></svg>
