<?xml version="1.0" encoding="UTF-8"?>
<svg version="1.1" viewBox="0 0 200 200" xmlns="http://www.w3.org/2000/svg">
 <path d="m118 38-0.125 0.0234c-7.2 0-14 1.25-20.4 3.53-4.95 1.79-9.54 4.2-13.6 7.14a20.3 19.6 0 0 0-13.5-4.98 20.3 19.6 0 0 0-20.2 17.6 39 35.1 0 0 0-29.6 28.3 39 35.1 0 0 1 9.59-3.25 20.3 19.6 0 0 1 20.2-17.6 20.3 19.6 0 0 1 13.5 4.98c4.05-2.94 8.64-5.35 13.6-7.14 6.39-2.28 13.2-3.53 20.4-3.53l0.125-0.0234c19.4 0 36.5 9.09 46.3 22.9a33.6 30.3 0 0 1 2.2-0.0644 33.6 30.3 0 0 1 33.6 30.3 33.6 30.3 0 0 1-0.145 2.79 33.6 30.3 0 0 0 20.1-27.8 33.6 30.3 0 0 0-33.6-30.3 33.6 30.3 0 0 0-2.2 0.0644c-9.72-13.8-26.9-22.9-46.3-22.9z" fill="#b2b2b2"/>
 <path d="m97.8 63c-7.2 0-14 1.25-20.4 3.53-4.95 1.79-9.54 4.2-13.6 7.14a20.3 19.6 0 0 0-13.5-4.98 20.3 19.6 0 0 0-20.2 17.6 39 35.1 0 0 0-30.2 34.2 39 35.1 0 0 0 39 35.1 39 35.1 0 0 0 22.2-6.33c9.72 7.87 22.5 12.7 36.7 12.7 16.2 0 30.8-6.32 40.8-16.4a33.6 30.3 0 0 0 7.72 0.81 33.6 30.3 0 0 0 33.6-30.3 33.6 30.3 0 0 0-33.6-30.3 33.6 30.3 0 0 0-2.2 0.0661c-9.72-13.8-26.9-22.9-46.3-22.9z" fill="#ddd"/>
</svg>
