<?xml version="1.0" encoding="UTF-8"?>
<svg version="1.1" viewBox="0 0 200 200" xmlns="http://www.w3.org/2000/svg">
 <path d="m107 38a70.2 66 0 0 0-48.3 18.4 28.4 26.7 0 0 0-8.04-1.09 28.4 26.7 0 0 0-28.2 23.4 38.9 36.6 0 0 0-22.9 33.4 38.9 36.6 0 0 0 11.4 25.9h165a38.8 36.5 0 0 0 23.5-33.5 38.8 36.5 0 0 0-33-36 70.2 66 0 0 0-59.1-30.5 70.2 66 0 0 0-0.365 0z" fill="#ddd"/>
 <path d="m65.2 149 0.722 0.335c2.69 1.25 3.84 4.41 2.59 7.09l-13.6 29c-1.25 2.68-4.42 3.83-7.11 2.58l-0.722-0.335c-2.69-1.25-3.84-4.41-2.59-7.09l13.6-29c1.25-2.68 4.42-3.83 7.11-2.58zm88 0 0.722 0.335c2.69 1.25 3.84 4.41 2.59 7.09l-13.6 29c-1.25 2.68-4.42 3.83-7.11 2.58l-0.722-0.335c-2.69-1.25-3.84-4.41-2.59-7.09l13.6-29c1.25-2.68 4.42-3.83 7.11-2.58zm-44 0 0.722 0.335c2.69 1.25 3.84 4.41 2.59 7.09l-13.6 29c-1.25 2.68-4.42 3.83-7.11 2.58l-0.722-0.335c-2.69-1.25-3.84-4.41-2.59-7.09l13.6-29c1.25-2.68 4.42-3.83 7.11-2.58z" fill="#2dbaef"/>
</svg>
