<?xml version="1.0" encoding="UTF-8"?>
<svg version="1.1" viewBox="0 0 200 200" xmlns="http://www.w3.org/2000/svg">
 <title>fog</title>
 <path d="m179 107c-0.72-0.96-2.08-1.12-2.96-0.4l-3.68 2.88c-0.8 0.8-6.08 4.24-12.2 4.32-4.24 0.08-7.92-1.44-11-4.56-10-10-21.5-4.56-26.2-0.24-0.8 0.88-6.24 4.48-12.3 4.56-4.24 0.08-7.92-1.44-11-4.56-10-10-21.5-4.56-26.2-0.24-0.8 0.8-6.24 4.48-12.3 4.64-4.24 0.08-7.92-1.44-11-4.56-9.76-9.76-21-4.8-25.8-0.56l-2.4 1.84c-0.96 0.72-1.04 2.16-0.32 3.12s2.08 1.12 3.04 0.48l2.32-1.84 1.44-1.12c3.2-2.24 11.2-6.4 18.8 1.2 4.4 4.4 9.28 5.76 13.6 5.76 3.76 0 7.12-1.04 9.44-2 1.28-0.56 4.64-2 6.24-3.76 0.56-0.48 10.6-9.44 20.2 0.16 4.4 4.4 9.28 5.76 13.6 5.76 3.76 0 7.12-1.04 9.44-2 1.2-0.56 4.56-2 6.16-3.76 0.48-0.4 10.6-9.52 20.2 0.08 4.4 4.4 9.28 5.84 13.6 5.84 3.76 0 7.12-1.04 9.44-2 1.04-0.48 3.76-1.68 5.44-3.12l4-2.88c1.04-0.64 1.12-2.08 0.4-3.04zm0-22c-0.72-0.96-2.08-1.12-2.96-0.4l-3.68 2.88c-0.8 0.88-6.08 4.24-12.2 4.4-4.24 0.08-7.92-1.44-11-4.56-10-10-21.5-4.56-26.2-0.24-0.8 0.88-6.24 4.4-12.3 4.56-4.24 0.08-7.92-1.44-11-4.56-10-10-21.5-4.56-26.2-0.24-0.8 0.88-6.24 4.48-12.3 4.64-4.24 0.08-7.92-1.44-11-4.56-9.76-9.76-21-4.8-25.8-0.56l-2.4 1.76c-0.96 0.72-1.04 2.16-0.32 3.12s2.08 1.12 3.04 0.4l2.32-1.84 1.44-1.12c3.2-2.24 11.2-6.4 18.8 1.2 4.4 4.4 9.28 5.76 13.6 5.76 3.76 0 7.12-1.04 9.44-2 1.28-0.48 4.64-2 6.24-3.76 0.56-0.48 10.6-9.44 20.2 0.16 4.4 4.4 9.28 5.76 13.6 5.76 3.76 0 7.12-1.04 9.44-2 1.2-0.48 4.56-2 6.16-3.76 0.48-0.4 10.6-9.44 20.2 0.16 4.4 4.4 9.28 5.76 13.6 5.76 3.76 0 7.12-1.04 9.44-2 1.04-0.48 3.76-1.6 5.44-3.12l4-2.88c1.04-0.56 1.12-2 0.4-2.96zm0 43.6c-0.72-0.96-2.08-1.12-2.96-0.4l-3.68 2.88c-0.8 0.88-6.08 4.24-12.2 4.32-4.24 0.08-7.92-1.44-11-4.48-10-10.1-21.5-4.56-26.2-0.24-0.8 0.88-6.24 4.4-12.3 4.56-4.24 0.08-7.92-1.44-11-4.56-10-10-21.5-4.56-26.2-0.24-0.8 0.88-6.24 4.48-12.3 4.64-4.24 0.08-7.92-1.44-11-4.56-9.76-9.84-21-4.8-25.8-0.56l-2.4 1.76c-0.96 0.72-1.04 2.16-0.32 3.12s2.08 1.12 3.04 0.4l2.32-1.84 1.44-1.12c3.2-2.24 11.2-6.4 18.8 1.2 4.4 4.48 9.28 5.84 13.6 5.84 3.76 0 7.12-1.04 9.44-2 1.28-0.56 4.64-2 6.24-3.76 0.56-0.48 10.6-9.44 20.2 0.16 4.4 4.4 9.28 5.84 13.6 5.84 3.76 0 7.12-1.04 9.44-2 1.2-0.48 4.56-2 6.16-3.76 0.48-0.4 10.6-9.52 20.2 0.08 4.4 4.4 9.28 5.76 13.6 5.76 3.76 0 7.12-1.04 9.44-2 1.04-0.48 3.76-1.6 5.44-3.12l4-2.88c1.04-0.56 1.12-2.08 0.4-3.04zm0-64.6c-0.72-0.96-2.08-1.12-2.96-0.4l-3.68 2.88c-0.8 0.88-6.08 4.24-12.2 4.32-4.24 0.08-7.92-1.44-11-4.48-10-10.1-21.5-4.56-26.2-0.24-0.8 0.88-6.24 4.4-12.3 4.56-4.24 0.08-7.92-1.44-11-4.56-10-10-21.5-4.56-26.2-0.24-0.8 0.88-6.24 4.48-12.3 4.64-4.24 0.08-7.92-1.44-11-4.56-9.76-9.84-21-4.8-25.8-0.56l-2.4 1.76c-0.96 0.72-1.04 2.16-0.32 3.12s2.08 1.12 3.04 0.4l2.32-1.84 1.44-1.04c3.2-2.24 11.2-6.4 18.8 1.2 4.4 4.4 9.28 5.84 13.6 5.84 3.76 0 7.12-1.04 9.44-2 1.28-0.56 4.64-2 6.24-3.76 0.56-0.48 10.6-9.44 20.2 0.16 4.4 4.4 9.28 5.84 13.6 5.84 3.76 0 7.12-1.04 9.44-2 1.2-0.56 4.56-2 6.16-3.76 0.48-0.4 10.6-9.52 20.2 0.08 4.4 4.4 9.28 5.84 13.6 5.84 3.76 0 7.12-1.04 9.44-2 1.04-0.48 3.76-1.6 5.44-3.12l4-2.88c1.04-0.8 1.12-2.32 0.4-3.2z" fill="#ddd"/>
</svg>
