<?xml version="1.0" encoding="UTF-8"?>
<svg version="1.1" viewBox="0 0 200 200" xmlns="http://www.w3.org/2000/svg"><path d="m109 45c-8 0-15.6 1.39-22.7 3.92-5.5 1.99-10.6 4.67-15.1 7.94a22.5 21.8 0 0 0-15-5.53 22.5 21.8 0 0 0-22.4 19.6 43.3 39 0 0 0-33.5 38 43.3 39 0 0 0 43.3 39 43.3 39 0 0 0 24.7-7.03c10.8 8.75 25 14.1 40.8 14.1 18 0 34.2-7.02 45.3-18.2a37.3 33.7 0 0 0 8.58 0.9 37.3 33.7 0 0 0 37.3-33.7 37.3 33.7 0 0 0-37.3-33.7 37.3 33.7 0 0 0-2.44 0.0735c-10.8-15.3-29.9-25.4-51.4-25.4z" fill="#ddd"/></svg>
