<?xml version="1.0" encoding="UTF-8"?>
<svg version="1.1" viewBox="0 0 200 200" xmlns="http://www.w3.org/2000/svg">
 <path d="m140 22.5c-2.5 0-4.5 2.14-4.5 4.8v11.4c0 2.66 2 4.8 4.5 4.8s4.5-2.14 4.5-4.8v-11.4c0-2.66-2-4.8-4.5-4.8zm27.4 7.49c-1.47 0.147-2.88 1.02-3.71 2.46l-5.7 9.9c-1.33 2.32-0.66 5.17 1.5 6.42s4.97 0.396 6.3-1.91l5.7-9.9c1.33-2.32 0.66-5.17-1.5-6.42-0.81-0.468-1.71-0.639-2.59-0.551zm-55.7 0.186c-0.588 0.0602-1.17 0.244-1.71 0.559-2.16 1.26-2.83 4.12-1.5 6.42l5.7 9.9c1.33 2.3 4.14 3.16 6.3 1.91 2.16-1.26 2.83-4.12 1.5-6.42l-5.7-9.9c-0.999-1.73-2.83-2.65-4.59-2.47zm76.6 20.4c-0.906-0.0369-1.85 0.18-2.71 0.68l-9.9 5.7c-2.3 1.33-3.17 4.14-1.91 6.3s4.12 2.83 6.42 1.5l9.9-5.7c2.3-1.33 3.16-4.14 1.91-6.3-0.788-1.35-2.2-2.12-3.71-2.18zm-96.6 2e-3c-1.51 0.0612-2.92 0.828-3.7 2.18-1.25 2.16-0.396 4.97 1.91 6.3l9.9 5.7c2.32 1.33 5.17 0.66 6.42-1.5s0.396-4.97-1.91-6.3l-9.9-5.7c-0.868-0.497-1.81-0.714-2.72-0.678zm48.2 2a30 30 0 0 0-25.9 15.1c19.4 1.46 36.3 11.1 46.3 25.2a37.3 33.7 0 0 1 2.45-0.0742 37.3 33.7 0 0 1 5.37 0.352 30 30 0 0 0 1.96-10.7 30 30 0 0 0-30-30 30 30 0 0 0-0.145 0zm43.9 25.4c-2.66 0-4.8 2-4.8 4.5s2.14 4.5 4.8 4.5h11.4c2.66 0 4.8-2 4.8-4.5s-2.14-4.5-4.8-4.5z" fill="#ffc700"/>
 <path d="m109 67.5c-8 0-15.6 1.39-22.7 3.92-5.5 1.99-10.6 4.67-15.1 7.94a22.5 21.8 0 0 0-15-5.53 22.5 21.8 0 0 0-22.4 19.6 43.3 39 0 0 0-33.5 38 43.3 39 0 0 0 43.3 39 43.3 39 0 0 0 24.7-7.03c10.8 8.75 25 14.1 40.8 14.1 18 0 34.2-7.02 45.3-18.2a37.3 33.7 0 0 0 8.58 0.9 37.3 33.7 0 0 0 37.3-33.7 37.3 33.7 0 0 0-37.3-33.7 37.3 33.7 0 0 0-2.44 0.0735c-10.8-15.3-29.9-25.4-51.4-25.4z" fill="#ddd"/>
</svg>
