<?xml version="1.0" encoding="UTF-8"?>
<svg version="1.1" viewBox="0 0 200 200" xmlns="http://www.w3.org/2000/svg">
 <path d="m107 38a70.2 66 0 0 0-48.3 18.4 28.4 26.7 0 0 0-8.04-1.09 28.4 26.7 0 0 0-28.2 23.4 38.9 36.6 0 0 0-22.9 33.4 38.9 36.6 0 0 0 11.4 25.9h165a38.8 36.5 0 0 0 23.5-33.5 38.8 36.5 0 0 0-33-36 70.2 66 0 0 0-59.1-30.5 70.2 66 0 0 0-0.365 0z" fill="#ddd"/>
 <path d="m143 145c-1.72 0-1.64 3.8-1.64 3.8s-4.3-1.83-4.9-0.634c-0.724 1.42 4.9 3.17 4.9 3.17v7.37l-6.42-3.68s1.29-5.72-0.308-5.82c-1.35-0.0729-1.9 4.54-1.9 4.54s-3.27-1.98-4.14-0.494c-0.862 1.48 2.5 3.3 2.5 3.3s-3.75 2.79-3 3.9c0.874 1.33 5.22-2.64 5.22-2.64l6.42 3.68-6.42 3.68s-4.35-3.97-5.22-2.64c-0.737 1.12 3 3.9 3 3.9s-3.37 1.82-2.5 3.3c0.862 1.48 4.14-0.494 4.14-0.494s0.555 4.61 1.9 4.54c1.6-0.0864 0.308-5.82 0.308-5.82l6.42-3.68v7.37s-5.64 1.75-4.9 3.17c0.61 1.2 4.9-0.634 4.9-0.634s-0.0885 3.8 1.64 3.8c1.72 0 1.64-3.8 1.64-3.8s4.3 1.83 4.9 0.634c0.724-1.42-4.9-3.17-4.9-3.17v-7.37l6.42 3.68s-1.29 5.72 0.308 5.82c1.35 0.0729 1.9-4.54 1.9-4.54s3.27 1.98 4.14 0.494c0.862-1.48-2.5-3.3-2.5-3.3s3.75-2.79 3-3.9c-0.874-1.33-5.22 2.64-5.22 2.64l-6.42-3.68 6.42-3.68s4.35 3.97 5.22 2.64c0.737-1.12-3-3.9-3-3.9s3.37-1.82 2.5-3.3c-0.862-1.48-4.14 0.494-4.14 0.494s-0.555-4.61-1.9-4.54c-1.6 0.0864-0.308 5.82-0.308 5.82l-6.42 3.68v-7.37s5.64-1.75 4.9-3.17c-0.61-1.2-4.9 0.634-4.9 0.634s0.0885-3.8-1.64-3.8z" fill="#f2f2f2"/>
 <path d="m61 150c-1.72 0-1.64 3.8-1.64 3.8s-4.3-1.83-4.9-0.634c-0.724 1.42 4.9 3.17 4.9 3.17v7.37l-6.42-3.68s1.29-5.72-0.308-5.82c-1.35-0.0729-1.9 4.54-1.9 4.54s-3.27-1.98-4.14-0.494c-0.862 1.48 2.5 3.3 2.5 3.3s-3.75 2.79-3 3.9c0.874 1.33 5.22-2.64 5.22-2.64l6.42 3.68-6.42 3.68s-4.35-3.97-5.22-2.64c-0.737 1.12 3 3.9 3 3.9s-3.37 1.82-2.5 3.3c0.862 1.48 4.14-0.494 4.14-0.494s0.555 4.61 1.9 4.54c1.6-0.0863 0.308-5.82 0.308-5.82l6.42-3.68v7.37s-5.64 1.75-4.9 3.17c0.61 1.2 4.9-0.634 4.9-0.634s-0.0885 3.8 1.64 3.8c1.72 0 1.64-3.8 1.64-3.8s4.3 1.83 4.9 0.634c0.724-1.42-4.9-3.17-4.9-3.17v-7.37l6.42 3.68s-1.29 5.72 0.308 5.82c1.35 0.0729 1.9-4.54 1.9-4.54s3.27 1.98 4.14 0.494c0.862-1.48-2.5-3.3-2.5-3.3s3.75-2.79 3-3.9c-0.874-1.33-5.22 2.64-5.22 2.64l-6.42-3.68 6.42-3.68s4.35 3.97 5.22 2.64c0.737-1.12-3-3.9-3-3.9s3.37-1.82 2.5-3.3c-0.862-1.48-4.14 0.494-4.14 0.494s-0.555-4.61-1.9-4.54c-1.6 0.0863-0.308 5.82-0.308 5.82l-6.42 3.68v-7.37s5.64-1.75 4.9-3.17c-0.61-1.2-4.9 0.634-4.9 0.634s0.0885-3.8-1.64-3.8z" fill="#f2f2f2"/>
</svg>
