<?xml version="1.0" encoding="UTF-8"?>
<svg version="1.1" viewBox="0 0 200 200" xmlns="http://www.w3.org/2000/svg">
 <path d="m115 15c-3.54 0-6.38 3.04-6.38 6.8v16.1c0 3.77 2.84 6.8 6.38 6.8s6.38-3.04 6.38-6.8v-16.1c0-3.77-2.84-6.8-6.38-6.8zm39.5 10.6c-2.3 0.00119-4.58 1.27-5.88 3.52l-8.07 14c-1.88 3.28-0.935 7.33 2.12 9.1s7.04 0.561 8.93-2.7l8.07-14c1.88-3.28 0.935-7.33-2.12-9.09-0.956-0.552-2-0.815-3.04-0.814zm-78.9 0.264c-1.04-3.12e-4 -2.09 0.264-3.04 0.822-3.06 1.78-4.01 5.83-2.12 9.1l8.07 14c1.89 3.26 5.87 4.47 8.93 2.7 3.06-1.78 4.01-5.83 2.12-9.09l-8.07-14c-1.3-2.24-3.58-3.52-5.88-3.53zm108 28.9c-1.28-0.0523-2.62 0.255-3.84 0.963l-14 8.07c-3.26 1.89-4.49 5.87-2.7 8.93s5.83 4.01 9.1 2.12l14-8.07c3.26-1.89 4.47-5.87 2.7-8.93-1.12-1.91-3.11-3-5.25-3.09zm-137 0.00391c-2.14 0.0867-4.14 1.17-5.24 3.08-1.77 3.06-0.561 7.04 2.7 8.93l8.53 4.91a42.1 39.6 0 0 1 11.9-1.68l-0.00195 0.00586a42.1 39.6 0 0 1 0.219 0 42.1 39.6 0 0 1 3.22 0.121c0.18-2.45-1.1-4.95-3.49-6.34l-14-8.07c-1.23-0.704-2.57-1.01-3.85-0.959zm68.4 2.83a42.5 42.5 0 0 0-33.1 15.9 42.1 39.6 0 0 1 18.3 14.8 23.3 21.9 0 0 1 19.8 21.6 23.3 21.9 0 0 1-14.1 20.1h-21.1a42.5 42.5 0 0 0 30.2 12.6 42.5 42.5 0 0 0 42.5-42.5 42.5 42.5 0 0 0-42.5-42.5zm62.1 36c-3.77 0-6.8 2.84-6.8 6.38s3.04 6.38 6.8 6.38h16.1c3.77 0 6.8-2.84 6.8-6.38s-3.04-6.38-6.8-6.38h-16.1zm-8.94 31.3c-2.14 0.0867-4.14 1.17-5.24 3.08-1.77 3.06-0.561 7.04 2.7 8.93l14 8.07c3.28 1.88 7.33 0.935 9.1-2.12s0.561-7.04-2.7-8.93l-14-8.07c-1.23-0.704-2.57-1.01-3.85-0.959zm-118 5.12-6.06 3.49c-3.26 1.89-4.49 5.86-2.7 8.92s5.83 4.01 9.1 2.12l14-8.07c2.44-1.41 3.72-3.98 3.49-6.46h-17.8zm34.2 17.1c-2.3 0.00119-4.58 1.27-5.88 3.52l-8.07 14c-1.88 3.28-0.935 7.33 2.12 9.1s7.04 0.561 8.93-2.7l8.07-14c1.88-3.28 0.935-7.33-2.12-9.1-0.956-0.552-2-0.813-3.04-0.812zm61.3 0.264c-1.04-3.1e-4 -2.09 0.264-3.04 0.822-3.06 1.78-4.01 5.83-2.12 9.09l8.07 14c1.89 3.26 5.87 4.47 8.93 2.7 3.06-1.78 4.01-5.83 2.12-9.1l-8.07-14c-1.3-2.24-3.58-3.52-5.88-3.52zm-30.7 7.86c-3.54 0-6.38 3.04-6.38 6.8v16.1c0 3.77 2.84 6.8 6.38 6.8s6.38-3.04 6.38-6.8v-16.1c0-3.77-2.84-6.8-6.38-6.8z" fill="#ffc700" stroke-width=".85"/>
 <path d="m64.5 70a42.1 39.6 0 0 0-29 11 17 16 0 0 0-4.83-0.654 17 16 0 0 0-16.9 14 23.4 22 0 0 0-13.7 20 23.4 22 0 0 0 6.84 15.5h99a23.3 21.9 0 0 0 14.1-20.1 23.3 21.9 0 0 0-19.8-21.6 42.1 39.6 0 0 0-35.5-18.3 42.1 39.6 0 0 0-0.219 0z" fill="#ddd" stroke-width=".6"/>
</svg>
