<?xml version="1.0" encoding="UTF-8"?>
<svg version="1.1" viewBox="0 0 200 200" xmlns="http://www.w3.org/2000/svg">
 <path d="m194 104-8-8.32-11.1 3.22 8.32-8-3.22-11.1 8 8.32 11.1-3.22-8.32 8zm-44.9-35-5.04-5.24-6.98 2.02 5.24-5.04-2.02-6.98 5.04 5.24 6.98-2.02-5.24 5.04zm-25-32.6a67.6 67.6 0 0 0-37.4 60.4 67.6 67.6 0 0 0 67.6 67.6 67.6 67.6 0 0 0 28.7-6.39 79.8 79.8 0 0 1-71-79.4 79.8 79.8 0 0 1 12.1-42.2z" fill="#666" stroke="#f2f2f2" stroke-width="2.4"/>
 <path d="m64.5 70a42.1 39.6 0 0 0-29 11 17 16 0 0 0-4.83-0.654 17 16 0 0 0-16.9 14 23.4 22 0 0 0-13.7 20 23.4 22 0 0 0 6.84 15.5h99a23.3 21.9 0 0 0 14.1-20.1 23.3 21.9 0 0 0-19.8-21.6 42.1 39.6 0 0 0-35.5-18.3 42.1 39.6 0 0 0-0.219 0z" fill="#ddd"/>
</svg>
